<?xml version="1.0" encoding="UTF-8" standalone="no"?>
<svg width="190px" height="64px" viewBox="0 0 190 64" version="1.1" xmlns="http://www.w3.org/2000/svg" xmlns:xlink="http://www.w3.org/1999/xlink" xmlns:sketch="http://www.bohemiancoding.com/sketch/ns">
    <!-- Generator: Sketch 3.3.2 (12043) - http://www.bohemiancoding.com/sketch -->
    <title>logo</title>
    <desc>Created with Sketch.</desc>
    <defs></defs>
    <g id="Page-1" stroke="none" stroke-width="1" fill="none" fill-rule="evenodd" sketch:type="MSPage">
        <path d="M0.096,59.312 L28.448,59.312 L28.448,50.672 L12.128,50.672 L12.128,16.304 L0.096,16.304 L0.096,59.312 Z M46.432,53.04 C44.384,53.04 42.912,52.208 42.912,49.392 C42.912,46.96 44,45.936 46.56,45.68 L50.4,45.296 L50.4,51.696 C49.696,52.464 48.16,53.04 46.432,53.04 L46.432,53.04 Z M42.72,59.888 C46.816,59.888 49.76,58.736 51.168,56.752 L51.488,56.752 L52.256,59.312 L61.28,59.312 L61.28,35.824 C61.28,28.336 56.288,25.712 48.16,25.712 C43.04,25.712 38.688,26.288 35.296,27.632 L35.296,34.8 C37.536,34.288 40.672,33.84 44,33.84 C48.736,33.84 50.4,34.544 50.4,38.064 L50.4,39.408 L44.384,40.304 C37.28,41.264 32.48,43.568 32.48,50.544 C32.48,56.88 36.704,59.888 42.72,59.888 L42.72,59.888 Z M82.976,52.464 C81.12,52.464 79.776,52.144 78.816,51.696 L78.816,35.12 C79.776,34.608 81.632,34.032 83.488,34.032 C87.456,34.032 89.568,35.696 89.568,42.48 L89.568,43.44 C89.568,50.736 86.56,52.464 82.976,52.464 L82.976,52.464 Z M82.336,59.952 C94.368,59.952 100.704,54.896 100.704,42.16 L100.704,41.328 C100.704,29.36 94.688,25.712 88.48,25.712 C84.32,25.712 81.44,26.864 79.136,28.72 L78.816,28.72 L78.816,13.488 L67.936,13.488 L67.936,57.648 C71.712,59.056 76.64,59.952 82.336,59.952 L82.336,59.952 Z M106.272,59.248 L117.216,59.248 L117.216,35.248 C118.496,34.736 120.544,34.16 122.272,34.16 C125.28,34.16 126.432,35.056 126.432,37.744 L126.432,59.248 L137.312,59.248 L137.312,34.736 C137.312,28.208 133.728,25.712 127.584,25.712 C123.424,25.712 120.032,26.864 117.472,28.912 L117.216,28.912 L117.216,13.488 L106.272,13.488 L106.272,59.248 Z M173.536,32.688 C172.384,31.536 170.4,31.216 168.864,31.216 C166.368,31.216 163.424,32.816 162.656,36.272 L162.4,36.272 C161.12,33.2 158.176,31.536 154.272,31.536 C148.448,31.536 142.368,35.376 142.368,44.272 C142.368,52.08 147.04,59.248 154.848,63.28 L160.544,57.264 C153.504,53.552 151.392,48.624 151.392,44.656 C151.392,40.24 153.504,39.024 155.232,39.024 C157.344,39.024 158.752,40.624 158.752,43.632 L158.752,50.096 L166.944,50.096 L166.944,44.08 C166.944,40.624 168.096,38.96 170.72,38.96 C171.808,38.96 173.216,39.472 173.792,39.856 L173.792,62 L182.88,62 L182.88,26.032 L189.6,26.032 L189.6,19.056 L138.592,19.056 L138.592,26.032 L173.792,26.032 L173.792,32.688 L173.536,32.688 Z M182.496,19.504 L166.816,0.752 L156.704,2.864 L162.144,9.008 C165.984,13.36 170.144,17.136 174.112,19.248 L174.56,19.504 L182.496,19.504 Z" id="logo" fill="#000000" sketch:type="MSShapeGroup"></path>
    </g>
</svg>